<svg xmlns="http://www.w3.org/2000/svg" width="100" height="100" viewBox="0 0 100 100" fill="none"><g transform="rotate(90 50.0 50.0)"><rect width="100" height="100" rx="50" fill="#445BFB"></rect><mask id="mask0_9_16" style="mask-type:luminance" maskUnits="userSpaceOnUse" x="31" y="35" width="37" height="29"><path d="M68 35H31V64H68V35Z" fill="white"></path></mask><g mask="url(#mask0_9_16)"><path d="M67.5541 50.2894L50.4898 63.7C50.2189 63.8913 49.865 63.9937 49.501 63.986C49.137 63.9784 48.7905 63.8613 48.533 63.6589C48.2756 63.4566 48.1266 63.1843 48.1169 62.8983C48.1072 62.6122 48.2374 62.3341 48.4808 62.1212L63.1163 50.618H32.4226C32.2317 50.6232 32.0415 50.5982 31.8631 50.5444C31.6848 50.4906 31.5221 50.4092 31.3847 50.3049C31.2473 50.2006 31.1381 50.0757 31.0634 49.9375C30.9888 49.7994 30.9503 49.6508 30.9503 49.5007C30.9503 49.3506 30.9888 49.202 31.0634 49.0638C31.1381 48.9257 31.2473 48.8007 31.3847 48.6964C31.5221 48.5922 31.6848 48.5107 31.8631 48.4569C32.0415 48.4031 32.2317 48.3781 32.4226 48.3834H63.1163L48.4808 36.8788C48.2374 36.6659 48.1072 36.3878 48.1169 36.1017C48.1266 35.8157 48.2756 35.5434 48.533 35.341C48.7905 35.1387 49.137 35.0216 49.501 35.014C49.865 35.0063 50.2189 35.1087 50.4898 35.3L67.5541 48.7106C67.6883 48.8101 67.7962 48.9295 67.8714 49.0619C67.9467 49.1942 67.988 49.337 67.9928 49.4819C67.9976 49.6269 67.966 49.7712 67.8996 49.9065C67.8333 50.0418 67.7335 50.1654 67.6062 50.2703C67.6 50.2774 67.5911 50.2826 67.5807 50.2853C67.5704 50.288 67.5593 50.288 67.5489 50.2853" fill="#D0E1D9"></path></g></g></svg>